<svg xmlns="http://www.w3.org/2000/svg" viewBox="0 0 32 32">
  <rect width="32" height="32" rx="9" fill="#fff"/>
  <g fill="#fa6aab">
    <!-- pineapple leaves -->
    <path d="M16 4c-.6 3-.9 5-.9 6.5h1.8C16.9 9 16.6 7 16 4z"/>
    <path d="M15.2 10.5c-2.2-1-4-1.8-5.4-2 .9 1.9 2.6 3.1 5.4 3.4z"/>
    <path d="M16.8 10.5c2.2-1 4-1.8 5.4-2-.9 1.9-2.6 3.1-5.4 3.4z"/>
    <!-- heart body -->
    <path d="M16 13.2c-1.4-1.5-3.2-2-4.7-1.7C9 12 7.6 13.6 7.6 15.8c0 3.6 4.4 6.4 8.4 8.6 4-2.2 8.4-5 8.4-8.6 0-2.2-1.4-3.8-3.7-4.3-1.5-.3-3.3.2-4.7 1.7z"/>
  </g>
  <!-- handshake hint (white cutout) -->
  <path d="M11 18.5c2-1.6 4-2.9 6-3.9M13 21c1.6-1.3 3.2-2.5 4.8-3.5" stroke="#fff" stroke-width="1.3" stroke-linecap="round" fill="none"/>
</svg>
