<svg xmlns="http://www.w3.org/2000/svg" viewBox="0 0 32 32">
  <defs>
    <linearGradient id="g" x1="0" y1="0" x2="1" y2="1">
      <stop offset="0%" stop-color="#EE5A8C"/>
      <stop offset="100%" stop-color="#F89BBA"/>
    </linearGradient>
  </defs>
  <rect width="32" height="32" rx="9" fill="url(#g)"/>
  <path d="M15.5 6.6c.2-.5.5-.9.8-1 .2.1.3.5.3.9l-.1 1 .9.2c.4.1.7.3.7.6-.2.2-.6.3-1 .3l-.9.1.1 1c0 .5-.1.9-.3 1.1-.4-.2-.6-.5-.7-1l-.1-1-1 .1c-.4 0-.8-.2-1-.4.2-.3.5-.5.9-.6l1-.1-.1-1c0-.4.1-.7.3-1 .1.2.2.5.2.8z" fill="#fff"/>
  <path d="M16 11.2c2.6 0 4.7 1.7 4.7 4.4 0 3.4-3.5 5.9-4.5 6.6-.1.1-.3.1-.4 0-1.1-.7-4.5-3.2-4.5-6.6 0-2.7 2.1-4.4 4.7-4.4z" fill="#fff"/>
</svg>
